<svg aria-hidden="true" xmlns:xlink="http://www.w3.org/1999/xlink">
<defs>
<symbol id="icon-group" viewBox="0 0 65 32">
<path  d="M10.019 9.981c-1.829 0-3.314 1.318-3.314 2.941 0 1.63 1.486 2.941 3.307 2.941 1.829 0 3.314-1.31 3.314-2.941 0-1.623-1.486-2.941-3.307-2.941zM34.438 9.044c-0.008-2.255-1.021-4.419-2.819-6.019-1.783-1.548-4.127-2.492-6.692-2.492-0.021 0-0.041 0-0.062 0h0.003c-2.537 0-4.975 0.899-6.766 2.499-1.701 1.464-2.782 3.608-2.819 6.005l-0 0.006v12.434s19.154-1.897 19.154-12.434zM0 25.562c0 1.57 0.709 3.070 1.958 4.183 1.242 1.079 2.875 1.737 4.662 1.737 0.014 0 0.027-0 0.041-0h-0.002c1.768 0 3.459-0.625 4.709-1.737 1.182-1.020 1.933-2.511 1.958-4.178l0-0.004v-8.648s-13.326 1.318-13.326 8.648zM6.659 27.109c-0.343 0-0.686-0.084-0.968-0.259-0.278-0.163-0.498-0.4-0.636-0.684l-0.004-0.009c-0.084-0.174-0.133-0.378-0.133-0.594 0-0.108 0.012-0.213 0.036-0.314l-0.002 0.009c0.069-0.305 0.229-0.571 0.48-0.792 0.243-0.214 0.546-0.365 0.88-0.425l0.011-0.002c0.335-0.053 0.686-0.023 1.006 0.091s0.594 0.312 0.785 0.571c0.182 0.238 0.292 0.539 0.292 0.866 0 0.436-0.195 0.827-0.503 1.090l-0.002 0.002c-0.168 0.152-0.358 0.259-0.571 0.343-0.213 0.076-0.434 0.114-0.67 0.114zM20.13 26.255h-1.288v1.333h-0.67v-3.253h2.118v0.541h-1.448v0.838h1.288v0.541zM23.345 26.034c0 0.32-0.053 0.602-0.168 0.838-0.202 0.453-0.648 0.763-1.166 0.763-0.016 0-0.032-0-0.048-0.001l0.002 0c-0.014 0-0.029 0.001-0.045 0.001-0.517 0-0.962-0.302-1.17-0.74l-0.003-0.008c-0.106-0.231-0.168-0.5-0.168-0.785 0-0.019 0-0.038 0.001-0.056l-0 0.003v-0.145c0-0.328 0.053-0.61 0.168-0.846 0.208-0.453 0.658-0.762 1.181-0.762 0.014 0 0.027 0 0.040 0.001l-0.002-0c0.267 0 0.51 0.069 0.716 0.198 0.213 0.13 0.381 0.32 0.488 0.564 0.122 0.236 0.175 0.518 0.175 0.838v0.152zM22.667 25.882c0-0.335-0.061-0.594-0.183-0.77-0.108-0.162-0.29-0.267-0.496-0.267-0.008 0-0.015 0-0.023 0l0.001-0c-0.229 0-0.404 0.084-0.526 0.259s-0.183 0.434-0.183 0.77v0.16c0 0.335 0.061 0.587 0.183 0.77s0.305 0.274 0.533 0.274c0.221 0 0.389-0.084 0.51-0.259s0.183-0.434 0.183-0.77v-0.16zM25.516 26.735c0-0.13-0.046-0.229-0.13-0.29-0.14-0.091-0.302-0.164-0.476-0.211l-0.012-0.003c-0.229-0.076-0.411-0.152-0.549-0.229-0.366-0.198-0.556-0.465-0.556-0.8 0-0.183 0.053-0.335 0.152-0.472s0.236-0.244 0.427-0.328c0.183-0.076 0.389-0.114 0.625-0.114 0.229 0 0.434 0.046 0.617 0.13 0.183 0.076 0.32 0.198 0.427 0.358 0.099 0.152 0.152 0.328 0.152 0.518h-0.67c0-0.152-0.053-0.267-0.145-0.343-0.098-0.081-0.225-0.13-0.363-0.13-0.012 0-0.023 0-0.034 0.001l0.002-0c-0.010-0.001-0.023-0.001-0.035-0.001-0.129 0-0.249 0.040-0.348 0.109l0.002-0.001c-0.084 0.060-0.137 0.157-0.137 0.267 0 0.003 0 0.005 0 0.008v-0c0 0.107 0.053 0.19 0.16 0.267 0.107 0.069 0.267 0.137 0.472 0.198 0.381 0.114 0.655 0.259 0.838 0.427 0.168 0.168 0.251 0.381 0.251 0.632 0 0.282-0.099 0.503-0.312 0.663s-0.503 0.244-0.861 0.244c-0.006 0-0.014 0-0.021 0-0.24 0-0.469-0.050-0.675-0.142l0.011 0.004c-0.372-0.14-0.633-0.494-0.633-0.908 0-0.008 0-0.015 0-0.023l-0 0.001h0.67c0 0.358 0.221 0.533 0.648 0.533 0.152 0 0.282-0.030 0.373-0.091 0.084-0.076 0.13-0.16 0.13-0.274zM29.097 24.876h-0.998v2.712h-0.67v-2.712h-0.99v-0.533h2.651v0.533zM31.429 26.171h-1.28v0.876h1.509v0.533h-2.179v-3.246h2.171v0.541h-1.501v0.777h1.28v0.526zM33.257 26.4h-0.533v1.189h-0.678v-3.253h1.211c0.381 0 0.678 0.084 0.884 0.259 0.213 0.168 0.312 0.411 0.312 0.724 0 0.229-0.046 0.404-0.145 0.556-0.091 0.152-0.236 0.267-0.434 0.35l0.701 1.333v0.030h-0.716l-0.61-1.189zM32.724 25.851h0.533c0.168 0 0.305-0.038 0.389-0.122 0.085-0.083 0.138-0.199 0.138-0.327 0-0.011-0-0.021-0.001-0.032l0 0.001c0-0.152-0.038-0.274-0.13-0.358-0.084-0.091-0.221-0.137-0.396-0.137h-0.533v0.975zM36.777 26.438v1.143h-0.67v-3.246h1.265c0.244 0 0.457 0.046 0.648 0.137 0.183 0.084 0.328 0.213 0.427 0.381 0.099 0.16 0.152 0.35 0.152 0.556 0 0.32-0.114 0.571-0.335 0.762-0.213 0.175-0.518 0.267-0.899 0.267h-0.587zM36.777 25.905h0.594c0.175 0 0.312-0.046 0.404-0.13 0.099-0.084 0.145-0.206 0.145-0.358 0-0.005 0-0.010 0-0.015 0-0.142-0.055-0.27-0.145-0.366l0 0c-0.095-0.094-0.226-0.152-0.37-0.152-0.004 0-0.008 0-0.011 0h-0.617v1.013zM41.013 26.179h-1.288v0.869h1.509v0.533h-2.179v-3.246h2.171v0.541h-1.501v0.777h1.288v0.526zM44.122 24.884h-0.998v2.705h-0.67v-2.712h-0.983v-0.533h2.651v0.533zM46.461 26.179h-1.295v0.869h1.516v0.533h-2.187v-3.246h2.171v0.541h-1.486v0.777h1.288v0.526zM48.274 26.4h-0.533v1.189h-0.67v-3.253h1.211c0.381 0 0.686 0.084 0.891 0.259 0.206 0.168 0.305 0.411 0.305 0.724 0 0.229-0.046 0.404-0.137 0.556-0.099 0.152-0.244 0.267-0.442 0.35l0.709 1.333v0.030h-0.724l-0.61-1.189zM47.741 25.851h0.541c0.168 0 0.305-0.038 0.396-0.122 0.085-0.083 0.138-0.199 0.138-0.327 0-0.011-0-0.021-0.001-0.032l0 0.001c0-0.152-0.046-0.274-0.137-0.358-0.076-0.091-0.213-0.137-0.396-0.137h-0.533v0.975zM51.68 26.735c0-0.13-0.046-0.229-0.137-0.29-0.138-0.090-0.298-0.163-0.468-0.21l-0.012-0.003c-0.229-0.076-0.419-0.152-0.549-0.229-0.373-0.198-0.556-0.465-0.556-0.8 0-0.183 0.046-0.335 0.152-0.472 0.091-0.137 0.236-0.244 0.419-0.328 0.19-0.076 0.396-0.114 0.625-0.114s0.442 0.046 0.625 0.13c0.183 0.076 0.32 0.198 0.419 0.358 0.099 0.152 0.152 0.328 0.152 0.518h-0.67c0-0.152-0.046-0.267-0.137-0.343-0.098-0.081-0.225-0.13-0.363-0.13-0.012 0-0.023 0-0.034 0.001l0.002-0c-0.010-0.001-0.023-0.001-0.035-0.001-0.129 0-0.249 0.040-0.348 0.109l0.002-0.001c-0.084 0.060-0.137 0.157-0.137 0.267 0 0.003 0 0.005 0 0.008v-0c0 0.107 0.053 0.19 0.152 0.267 0.114 0.069 0.267 0.137 0.48 0.198 0.381 0.114 0.655 0.259 0.83 0.427s0.259 0.381 0.259 0.632c0 0.282-0.107 0.503-0.32 0.663s-0.495 0.244-0.861 0.244c-0.006 0-0.014 0-0.021 0-0.24 0-0.469-0.050-0.675-0.142l0.011 0.004c-0.372-0.14-0.633-0.494-0.633-0.908 0-0.008 0-0.015 0-0.023l-0 0.001h0.678c0 0.358 0.213 0.533 0.64 0.533 0.16 0 0.29-0.030 0.381-0.091 0.084-0.076 0.13-0.16 0.13-0.274z"></path>
</symbol>
<symbol id="icon-Logo-1" viewBox="0 0 57 32">
<path  d="M26.725 3.163h-0.069l-0.336-0.011h-0.245c-0.015-0-0.034-0-0.052-0-0.226 0-0.45 0.006-0.672 0.017l0.031-0.001c-1.941 0.107-3.84 0.597-5.605 1.429l-0.229 0.112v11.808l0.539-0.181c1.729-0.623 3.724-0.994 5.802-1.019l0.011-0v1.552l-0.565 0.016h-0.043c-2.689 0.149-5.175 0.892-7.369 2.098l0.089-0.045v-15.152c1.196-0.71 2.58-1.288 4.045-1.662l0.11-0.024c1.172-0.314 2.518-0.497 3.907-0.501h0.232c0.973 0.003 1.916 0.129 2.814 0.364l-0.078-0.017v1.531c-0.544-0.134-1.188-0.236-1.848-0.286l-0.040-0.002h-0.037c-0.133-0.011-0.267-0.027-0.389-0.027zM29.413 4.725c0.301 0.019 0.653 0.030 1.008 0.030 1.474 0 2.904-0.19 4.266-0.547l-0.117 0.026c1.503-0.383 2.82-0.911 4.045-1.586l-0.087 0.044v14.875c-1.196 0.711-2.579 1.291-4.044 1.667l-0.11 0.024c-1.28 0.325-2.592 0.496-3.909 0.501-0.027 0-0.059 0-0.091 0-1.023 0-2.015-0.128-2.963-0.37l0.083 0.018v-14.971c0.553 0.135 1.209 0.238 1.881 0.286l0.039 0.002zM36.987 4.843l-0.539 0.181c-1.791 0.645-3.858 1.017-6.011 1.017-0.337 0-0.673-0.009-1.006-0.027l0.046 0.002-0.437-0.027v12.144l0.373 0.032c0.309 0.024 0.669 0.037 1.031 0.037 1.263 0 2.488-0.163 3.655-0.47l-0.1 0.022c1.056-0.271 1.972-0.612 2.84-1.036l-0.088 0.039 0.235-0.107v-11.808z"></path>
<path d="M19.061 24.112c-0.145-0.148-0.348-0.241-0.572-0.241-0.011 0-0.022 0-0.032 0.001l0.002-0c-0.117 0-0.235 0.021-0.347 0.064-0.3 0.12-0.508 0.408-0.508 0.745 0 0.014 0 0.028 0.001 0.041l-0-0.002v2.027c0 0.139 0.021 0.283 0.080 0.411 0.053 0.107 0.117 0.197 0.203 0.272 0.080 0.069 0.176 0.117 0.277 0.144s0.203 0.043 0.304 0.043c0.464-0.009 0.837-0.388 0.837-0.853 0-0 0-0 0-0v0-0.224h-0.533v0.176c0.005 0.064 0 0.128-0.027 0.181-0.017 0.046-0.042 0.085-0.075 0.117v0c-0.060 0.046-0.136 0.073-0.218 0.075h-0c-0.011 0.002-0.023 0.002-0.036 0.002-0.088 0-0.166-0.043-0.215-0.108l-0-0.001c-0.047-0.073-0.075-0.162-0.075-0.257 0-0.005 0-0.010 0-0.015l-0 0.001v-1.888c0-0.107 0.021-0.208 0.069-0.299 0.048-0.075 0.131-0.124 0.226-0.124 0.011 0 0.021 0.001 0.032 0.002l-0.001-0c0.003-0 0.006-0 0.009-0 0.092 0 0.173 0.044 0.225 0.111l0 0.001c0.057 0.072 0.091 0.163 0.091 0.263 0 0.001 0 0.003-0 0.004v-0 0.181h0.523v-0.208c0-0.002 0-0.005 0-0.007 0-0.243-0.091-0.465-0.241-0.634l0.001 0.001zM22.203 24.091c-0.162-0.136-0.374-0.219-0.604-0.219-0.112 0-0.22 0.020-0.32 0.055l0.007-0.002c-0.107 0.037-0.197 0.091-0.277 0.16-0.091 0.085-0.16 0.181-0.208 0.288-0.053 0.123-0.080 0.256-0.075 0.395v1.936c-0.005 0.139 0.021 0.272 0.075 0.4 0.048 0.107 0.117 0.197 0.208 0.267 0.080 0.080 0.171 0.139 0.277 0.176 0.094 0.035 0.202 0.055 0.315 0.055s0.221-0.020 0.321-0.057l-0.006 0.002c0.329-0.114 0.562-0.421 0.562-0.783 0-0.019-0.001-0.038-0.002-0.057l0 0.003v-1.941c0.001-0.011 0.001-0.024 0.001-0.038 0-0.252-0.107-0.48-0.278-0.639l-0-0zM21.957 26.704c0.001 0.009 0.001 0.019 0.001 0.029 0 0.1-0.041 0.189-0.108 0.253l-0 0c-0.067 0.055-0.153 0.089-0.248 0.089s-0.181-0.034-0.249-0.090l0.001 0c-0.067-0.063-0.108-0.153-0.108-0.252 0-0.011 0-0.022 0.002-0.033l-0 0.001v-1.936c-0.001-0.009-0.001-0.020-0.001-0.031 0-0.099 0.041-0.188 0.108-0.251l0-0c0.067-0.055 0.153-0.089 0.248-0.089s0.181 0.034 0.249 0.090l-0.001-0c0.067 0.063 0.108 0.153 0.108 0.252 0 0.011-0 0.022-0.002 0.033l0-0.001v1.936zM26.331 27.573v-3.68h-0.512l-0.667 1.947h-0.011l-0.672-1.947h-0.501v3.675h0.523v-2.24h0.011l0.512 1.584h0.267l0.517-1.579h0.005v2.235h0.528zM29.312 24.16c-0.080-0.096-0.181-0.16-0.299-0.203-0.109-0.037-0.234-0.059-0.365-0.059-0.005 0-0.010 0-0.015 0h-0.778v3.675h0.523v-1.44h0.267c0.165 0.011 0.325-0.021 0.475-0.096 0.212-0.132 0.361-0.347 0.405-0.597l0.001-0.005c0.021-0.124 0.032-0.266 0.032-0.411 0-0.187-0.020-0.369-0.057-0.545l0.003 0.017c-0.036-0.134-0.103-0.249-0.192-0.342l0 0zM29.045 25.28c-0.005 0.064-0.021 0.128-0.053 0.187-0.032 0.053-0.075 0.107-0.133 0.128-0.068 0.034-0.148 0.053-0.233 0.053-0.004 0-0.009-0-0.013-0h-0.239v-1.253h0.267c0.085 0 0.16 0.011 0.24 0.048 0.053 0.027 0.096 0.075 0.123 0.133 0.026 0.060 0.042 0.129 0.043 0.202v0.502zM31.787 23.899h-0.427l-0.8 3.675h0.523l0.155-0.789h0.709l0.16 0.789h0.517l-0.827-3.675zM31.307 26.283l0.261-1.333h0.005l0.256 1.333h-0.523zM35.173 26.112h-0.011l-0.789-2.213h-0.501v3.675h0.523v-2.208h0.011l0.795 2.208h0.491v-3.68h-0.523v2.213zM38.373 23.899l-0.427 1.461h-0.005l-0.427-1.461h-0.549l0.72 2.123v1.547h0.523v-1.547l0.72-2.123h-0.555zM17.6 28.608h0.251v0.709h0.171v-0.709h0.251v-0.144h-0.672v0.144zM19.723 28.464l-0.331 0.853h0.181l0.069-0.192h0.341l0.069 0.192h0.187l-0.336-0.853h-0.181zM19.696 28.981l0.112-0.32 0.117 0.32h-0.229zM21.813 29.003h0.203v0.107c-0.055 0.046-0.125 0.073-0.202 0.075h-0c-0.004 0-0.009 0-0.014 0-0.067 0-0.128-0.031-0.167-0.080l-0-0c-0.040-0.057-0.065-0.128-0.065-0.205 0-0.007 0-0.013 0.001-0.020l-0 0.001c0-0.187 0.080-0.283 0.245-0.283 0.005-0 0.011-0.001 0.017-0.001 0.083 0 0.154 0.056 0.175 0.133l0 0.001 0.171-0.032c-0.037-0.165-0.16-0.251-0.363-0.251-0.005-0-0.010-0-0.016-0-0.109 0-0.208 0.041-0.283 0.107l0-0c-0.077 0.076-0.124 0.18-0.124 0.296 0 0.012 0 0.024 0.002 0.036l-0-0.002c0 0.117 0.032 0.235 0.107 0.32 0.076 0.079 0.183 0.129 0.301 0.129 0.009 0 0.017-0 0.026-0.001l-0.001 0c0.133 0 0.267-0.048 0.363-0.139v-0.336h-0.373v0.144zM23.957 28.464h-0.171v0.853h0.597v-0.144h-0.427v-0.709zM25.771 28.464h-0.176v0.853h0.176v-0.853zM27.541 29.035l-0.352-0.571h-0.165v0.853h0.16v-0.555l0.341 0.555h0.171v-0.853h-0.16v0.571zM29.141 28.944h0.427v-0.144h-0.427v-0.192h0.453v-0.144h-0.629v0.853h0.651v-0.144h-0.48v-0.229zM33.019 28.8h-0.336v-0.336h-0.171v0.853h0.171v-0.373h0.336v0.373h0.171v-0.853h-0.171v0.336zM34.629 28.944h0.427v-0.144h-0.427v-0.192h0.459v-0.144h-0.629v0.853h0.645v-0.144h-0.475v-0.229zM36.811 28.944c0.149-0.027 0.224-0.107 0.224-0.24 0.001-0.007 0.001-0.016 0.001-0.024 0-0.066-0.032-0.125-0.081-0.162l-0.001-0c-0.064-0.034-0.141-0.054-0.222-0.054-0.010 0-0.020 0-0.030 0.001l0.001-0h-0.363v0.853h0.171v-0.357h0.032c0.037 0 0.075 0.005 0.107 0.021 0.027 0.016 0.053 0.037 0.064 0.064l0.187 0.267h0.203l-0.107-0.16c-0.043-0.085-0.107-0.16-0.187-0.213zM36.64 28.827h-0.128v-0.213h0.133c0.059-0.005 0.123 0 0.176 0.016 0.027 0.020 0.044 0.051 0.044 0.086 0 0.038-0.019 0.071-0.049 0.090l-0 0c-0.043 0.014-0.093 0.022-0.145 0.022-0.011 0-0.021-0-0.032-0.001l0.001 0zM38.459 28.944h0.427v-0.144h-0.427v-0.192h0.459v-0.144h-0.629v0.853h0.645v-0.144h-0.475v-0.229z"></path>
</symbol>
<symbol id="icon-Logo-2" viewBox="0 0 57 32">
<path  d="M19.413 26.187l0.027 0.005 0.021 0.011 0.117 0.112c-0.091 0.091-0.203 0.16-0.325 0.213-0.149 0.053-0.309 0.080-0.464 0.075-0.149 0-0.299-0.021-0.437-0.069-0.246-0.085-0.439-0.268-0.537-0.501l-0.002-0.006c-0.050-0.117-0.080-0.254-0.080-0.397s0.029-0.28 0.082-0.404l-0.003 0.007c0.053-0.112 0.128-0.219 0.229-0.309 0.096-0.085 0.213-0.155 0.347-0.197 0.134-0.048 0.289-0.076 0.451-0.076 0.15 0 0.294 0.024 0.428 0.068l-0.010-0.003c0.112 0.043 0.219 0.107 0.309 0.181l-0.096 0.117c-0.007 0.009-0.016 0.016-0.026 0.021l-0 0c-0.010 0.007-0.023 0.011-0.037 0.011-0 0-0 0-0 0h0c-0.016-0.002-0.031-0.008-0.043-0.016l0 0-0.053-0.032-0.069-0.037c-0.107-0.054-0.234-0.086-0.368-0.086-0.013 0-0.026 0-0.040 0.001l0.002-0c-0.107 0-0.219 0.016-0.32 0.053-0.19 0.065-0.339 0.206-0.414 0.385l-0.002 0.005c-0.040 0.091-0.063 0.197-0.064 0.309v0c0 0.107 0.021 0.219 0.059 0.32 0.073 0.181 0.219 0.32 0.401 0.383l0.005 0.001c0.096 0.032 0.197 0.053 0.299 0.053l0.176-0.011c0.148-0.016 0.28-0.076 0.385-0.166l-0.001 0.001c0.014-0.012 0.033-0.020 0.053-0.021h0zM22.773 25.627c0 0.139-0.021 0.267-0.075 0.395-0.053 0.112-0.123 0.213-0.219 0.304-0.101 0.091-0.213 0.16-0.347 0.203-0.283 0.096-0.597 0.096-0.885 0-0.132-0.047-0.245-0.116-0.342-0.203l0.001 0.001c-0.092-0.085-0.166-0.188-0.216-0.304l-0.002-0.006c-0.107-0.251-0.107-0.533 0-0.784 0.053-0.117 0.123-0.219 0.219-0.309 0.101-0.085 0.213-0.149 0.341-0.197 0.132-0.046 0.284-0.072 0.443-0.072s0.311 0.026 0.452 0.075l-0.010-0.003c0.128 0.048 0.245 0.117 0.347 0.203 0.181 0.166 0.294 0.404 0.294 0.668 0 0.011-0 0.021-0.001 0.032l0-0.002zM22.469 25.627c0-0.107-0.016-0.213-0.053-0.315-0.071-0.181-0.215-0.32-0.395-0.383l-0.005-0.001c-0.096-0.032-0.206-0.051-0.32-0.051s-0.224 0.019-0.327 0.053l0.007-0.002c-0.097 0.033-0.181 0.084-0.251 0.15l0-0c-0.069 0.064-0.123 0.142-0.158 0.23l-0.002 0.004c-0.069 0.208-0.069 0.427 0 0.635 0.071 0.183 0.218 0.323 0.401 0.383l0.005 0.001c0.208 0.064 0.437 0.064 0.64 0 0.096-0.037 0.181-0.085 0.251-0.149 0.069-0.069 0.123-0.149 0.155-0.235 0.037-0.107 0.053-0.213 0.053-0.32zM25.067 25.957l0.032 0.075 0.032-0.075 0.037-0.069 0.747-1.173c0.011-0.016 0.027-0.032 0.037-0.032 0.019-0.007 0.041-0.011 0.064-0.011v0h0.219v1.909h-0.261v-1.525l-0.747 1.189c-0.010 0.018-0.025 0.033-0.042 0.042l-0.001 0c-0.018 0.010-0.040 0.016-0.063 0.016-0 0-0 0-0.001 0h-0.043c-0.001 0-0.001 0-0.002 0-0.023 0-0.044-0.006-0.063-0.016l0.001 0c-0.018-0.010-0.033-0.025-0.042-0.042l-0-0.001-0.768-1.2v1.536h-0.256v-1.909h0.224c0.016 0 0.037 0 0.059 0.011 0.016 0.005 0.032 0.016 0.043 0.032l0.757 1.173 0.037 0.069zM27.861 25.867v0.715h-0.288v-1.909h0.645c0.123 0 0.245 0.016 0.363 0.043 0.096 0.021 0.181 0.064 0.256 0.117 0.064 0.053 0.117 0.117 0.149 0.187 0.032 0.080 0.053 0.16 0.048 0.245 0 0.002 0 0.003 0 0.005 0 0.174-0.083 0.328-0.212 0.426l-0.001 0.001c-0.075 0.059-0.16 0.107-0.256 0.128-0.102 0.030-0.219 0.048-0.34 0.048-0.004 0-0.008-0-0.013-0h0.001l-0.352-0.005zM27.861 25.659h0.352c0.080 0 0.155-0.005 0.229-0.027 0.061-0.020 0.115-0.049 0.161-0.086l-0.001 0.001c0.082-0.068 0.133-0.17 0.133-0.284 0-0.002 0-0.003-0-0.005v0c0-0.006 0.001-0.013 0.001-0.020 0-0.047-0.010-0.091-0.028-0.131l0.001 0.002c-0.026-0.053-0.062-0.098-0.106-0.133l-0.001-0.001c-0.107-0.075-0.245-0.107-0.389-0.101h-0.352v0.784zM31.771 26.581h-0.229c-0.002 0-0.005 0-0.007 0-0.021 0-0.041-0.006-0.057-0.017l0 0c-0.016-0.011-0.028-0.025-0.037-0.042l-0-0.001-0.197-0.464h-0.992l-0.208 0.464c-0.017 0.038-0.054 0.064-0.098 0.064-0.003 0-0.006-0-0.009-0l0 0h-0.224l0.875-1.915h0.304l0.88 1.909zM30.331 25.872h0.821l-0.347-0.773c-0.023-0.050-0.045-0.11-0.062-0.172l-0.002-0.009-0.032 0.101-0.032 0.080-0.347 0.773zM33.029 24.683l0.043 0.032 1.275 1.44v-1.483h0.256v1.909h-0.144c-0.021 0-0.043 0-0.059-0.011-0.019-0.010-0.035-0.022-0.048-0.037l-0-0-1.269-1.44v1.488h-0.261v-1.909h0.16c0.011 0 0.032 0 0.048 0.011zM36.747 25.824v0.757h-0.288v-0.757l-0.805-1.152h0.261c0.002-0 0.005-0 0.007-0 0.021 0 0.041 0.006 0.057 0.017l-0-0 0.037 0.043 0.501 0.747c0.032 0.047 0.062 0.101 0.088 0.158l0.003 0.007 0.037-0.080 0.053-0.085 0.491-0.747c0.011-0.016 0.023-0.030 0.037-0.042l0-0c0.016-0.013 0.037-0.021 0.060-0.021 0.001 0 0.002 0 0.004 0h0.266l-0.811 1.157zM24.923 21.472l0.384 0.032c1.947-0.747 3.565-1.984 4.754-3.562l0.020-0.027c1.060-1.413 1.697-3.195 1.697-5.127 0-0.054-0-0.107-0.001-0.161l0 0.008-2.165-1.877c0.443 1.989 0.235 4.043-0.592 5.936-0.907 1.983-2.311 3.605-4.054 4.753l-0.042 0.026z"></path>
<path  d="M24.149 21.387l0.059 0.005c1.973-1.227 3.483-2.939 4.32-4.923 0.478-1.079 0.756-2.337 0.756-3.66 0-0.898-0.128-1.765-0.367-2.586l0.016 0.065-3.083-2.672c0.96 1.642 1.527 3.616 1.527 5.722 0 0.483-0.030 0.959-0.088 1.427l0.006-0.056c-0.351 2.604-1.485 4.894-3.153 6.679l0.006-0.007zM34.597 14.843c-0.599 2.176-1.882 3.994-3.6 5.256l-0.027 0.019c-0.533 0.405-1.109 0.763-1.717 1.072 1.488-0.379 2.859-1.051 4-1.963 1.103-0.874 1.982-1.982 2.569-3.252l0.023-0.055-1.248-1.077z"></path>
<path  d="M34.107 14.539l-1.781-1.547c-0.047 1.877-0.666 3.6-1.687 5.013l0.018-0.026c-1.113 1.534-2.58 2.746-4.284 3.529l-0.068 0.028h0.011c0.4 0 0.8-0.021 1.195-0.059 1.692-0.597 3.134-1.537 4.301-2.744l0.003-0.003c1.093-1.13 1.895-2.549 2.281-4.13l0.013-0.062zM24.411 6.485l-2.123-1.845c-1.894 0.624-3.485 1.738-4.674 3.193l-0.014 0.018c-1.089 1.342-1.754 3.066-1.771 4.946l-0 0.004c0.028 2.083 0.84 3.971 2.154 5.386l-0.005-0.005c1.429 1.538 3.31 2.637 5.431 3.087l0.068 0.012c1.84-1.897 3.041-4.423 3.251-7.225l0.002-0.039c0.012-0.192 0.018-0.416 0.018-0.642 0-2.604-0.88-5.003-2.358-6.915l0.019 0.026zM39.008 14.256c-0.005-2.32-1.067-4.533-2.955-6.176-1.884-1.596-4.342-2.566-7.027-2.566-0.027 0-0.054 0-0.081 0l0.004-0c-1.232 0-2.453 0.197-3.605 0.587l12.992 11.28c0.423-0.919 0.67-1.993 0.672-3.125v-0.001z"></path>
</symbol>
<symbol id="icon-Logo-3" viewBox="0 0 57 32">
<path  d="M28.491 14.613c-0.202-0.262-0.323-0.594-0.323-0.955 0-0.035 0.001-0.071 0.003-0.105l-0 0.005v-1.536c0-0.475 0.107-0.832 0.32-1.077s0.587-0.368 1.104-0.363c0.485 0 0.837 0.107 1.040 0.309 0.224 0.267 0.331 0.592 0.309 0.923v0.357h-0.875v-0.363c0-0.123-0.005-0.24-0.027-0.357-0.014-0.086-0.059-0.161-0.122-0.213l-0.001-0c-0.079-0.054-0.178-0.087-0.283-0.087-0.013 0-0.026 0-0.038 0.001l0.002-0c-0.009-0.001-0.021-0.001-0.032-0.001-0.112 0-0.215 0.034-0.301 0.093l0.002-0.001c-0.074 0.058-0.127 0.139-0.149 0.232l-0.001 0.003c-0.021 0.123-0.032 0.251-0.032 0.373v1.867c-0.016 0.187 0.027 0.363 0.112 0.528 0.043 0.053 0.107 0.101 0.176 0.128 0.050 0.019 0.107 0.030 0.167 0.030 0.020 0 0.040-0.001 0.059-0.004l-0.002 0c0.012 0.001 0.027 0.002 0.041 0.002 0.1 0 0.193-0.031 0.27-0.083l-0.002 0.001c0.069-0.056 0.118-0.136 0.133-0.227l0-0.002c0.016-0.123 0.027-0.251 0.027-0.373v-0.384h0.875v0.347c0.021 0.341-0.085 0.683-0.304 0.965-0.203 0.229-0.544 0.341-1.045 0.341-0.507 0-0.885-0.123-1.104-0.373zM32.139 14.635c-0.224-0.24-0.331-0.587-0.331-1.051v-1.616c0-0.459 0.107-0.8 0.331-1.040 0.219-0.235 0.587-0.352 1.109-0.347 0.512 0 0.88 0.112 1.099 0.347 0.224 0.235 0.336 0.581 0.336 1.040v1.616c0 0.459-0.112 0.805-0.336 1.045-0.224 0.245-0.587 0.363-1.099 0.363s-0.891-0.123-1.109-0.357zM33.653 14.245c0.080-0.149 0.117-0.315 0.107-0.48v-1.979c0.011-0.16-0.027-0.32-0.107-0.469-0.046-0.057-0.105-0.101-0.173-0.127l-0.003-0.001c-0.050-0.019-0.108-0.031-0.168-0.031-0.021 0-0.043 0.001-0.063 0.004l0.002-0c-0.019-0.003-0.041-0.004-0.064-0.004-0.061 0-0.12 0.011-0.174 0.032l0.003-0.001c-0.073 0.027-0.134 0.071-0.181 0.127l-0.001 0.001c-0.075 0.144-0.112 0.309-0.107 0.469v1.989c-0.005 0.16 0.027 0.331 0.107 0.48 0.109 0.098 0.254 0.158 0.413 0.158 0.080 0 0.156-0.015 0.226-0.042l-0.004 0.001c0.075-0.027 0.133-0.069 0.187-0.117v-0.011zM35.733 10.624h0.944l0.709 2.987 0.725-2.987h0.917l0.091 4.309h-0.677l-0.075-2.992-0.693 2.992h-0.555l-0.725-3.003-0.064 3.003h-0.688l0.085-4.309zM40.176 10.624h1.467c0.848 0 1.269 0.411 1.269 1.227 0 0.779-0.443 1.173-1.333 1.173h-0.501v1.909h-0.907l0.005-4.309zM41.429 12.469c0.091 0.005 0.181 0 0.267-0.021 0.085-0.027 0.165-0.064 0.235-0.117 0.101-0.144 0.149-0.32 0.128-0.485 0-0.133-0.011-0.267-0.043-0.389-0.015-0.048-0.038-0.089-0.070-0.123l0 0c-0.031-0.035-0.068-0.063-0.11-0.084l-0.002-0.001c-0.128-0.053-0.267-0.075-0.405-0.069h-0.352v1.291h0.352zM44.213 10.624h0.976l1.003 4.309h-0.848l-0.197-0.992h-0.869l-0.203 0.992h-0.853l0.997-4.309zM45.051 13.44l-0.341-1.808-0.336 1.813h0.677zM46.997 10.624h0.635l1.211 2.459v-2.453h0.757v4.304h-0.603l-1.221-2.56v2.56h-0.779v-4.309zM51.36 13.291l-1.013-2.661h0.853l0.613 1.707 0.576-1.707h0.832l-0.992 2.667v1.637h-0.875v-1.643zM29.893 16.816v0.224h-0.741v1.755h-0.309v-1.755h-0.747v-0.224h1.797zM32.213 18.795h-0.245c-0.024 0-0.046-0.008-0.064-0.022l0 0c-0.018-0.010-0.033-0.025-0.042-0.042l-0-0.001-0.213-0.469h-1.024l-0.213 0.469c-0.006 0.021-0.018 0.039-0.032 0.053v0c-0.016 0.010-0.036 0.017-0.057 0.017-0.004 0-0.008-0-0.013-0.001l0 0h-0.24l0.907-1.973h0.32l0.912 1.968zM30.709 18.059h0.853l-0.363-0.8c-0.023-0.052-0.044-0.116-0.062-0.182l-0.002-0.010-0.037 0.107-0.032 0.085-0.357 0.8zM33.771 18.597h0.171c0.101-0.005 0.196-0.024 0.285-0.055l-0.007 0.002 0.117-0.053v-0.443h-0.357c-0.002 0-0.004 0-0.007 0-0.018 0-0.034-0.006-0.047-0.016l0 0c-0.004-0.004-0.008-0.010-0.011-0.016l-0-0-0.005-0.021v-0.149h0.704v0.757c-0.174 0.108-0.381 0.179-0.603 0.197l-0.005 0c-0.091 0.011-0.176 0.016-0.267 0.016-0.16 0-0.309-0.027-0.459-0.075-0.14-0.049-0.26-0.12-0.364-0.209l0.001 0.001c-0.095-0.085-0.172-0.188-0.227-0.303l-0.002-0.006c-0.059-0.133-0.085-0.272-0.085-0.411-0-0.010-0.001-0.022-0.001-0.034 0-0.277 0.124-0.524 0.319-0.691l0.001-0.001c0.096-0.091 0.224-0.16 0.357-0.208 0.142-0.048 0.305-0.076 0.475-0.076 0.092 0 0.183 0.008 0.271 0.024l-0.009-0.001c0.149 0.021 0.284 0.066 0.407 0.131l-0.007-0.003c0.053 0.027 0.107 0.064 0.16 0.101l-0.091 0.123c-0.008 0.012-0.019 0.021-0.032 0.026l-0 0c-0.011 0.006-0.024 0.010-0.037 0.011h-0c-0.020-0.001-0.038-0.007-0.054-0.016l0.001 0c-0.032-0.011-0.059-0.027-0.091-0.048-0.144-0.071-0.313-0.112-0.492-0.112-0.009 0-0.017 0-0.026 0l0.001-0c-0.005-0-0.012-0-0.018-0-0.119 0-0.234 0.020-0.341 0.056l0.008-0.002c-0.107 0.037-0.192 0.091-0.267 0.16-0.072 0.066-0.13 0.146-0.169 0.236l-0.002 0.004c-0.080 0.213-0.080 0.448 0 0.661 0.126 0.267 0.393 0.449 0.702 0.449 0.035 0 0.069-0.002 0.102-0.007l-0.004 0zM36.661 18.565h0.987v0.229h-1.291v-1.973h0.309l-0.005 1.744zM38.677 18.795h-0.309v-1.973h0.309v1.973zM39.829 16.827c0.021 0.011 0.037 0.021 0.048 0.037l1.323 1.488v-1.541h0.267v1.984h-0.149c-0.027 0-0.048 0-0.069-0.011-0.019-0.010-0.034-0.022-0.048-0.037l-0-0-1.323-1.493v1.541h-0.261v-1.973h0.213zM43.755 16.816v0.213h-1.099v0.656h0.891v0.213h-0.891v0.672h1.099v0.213h-1.419v-1.968h1.419zM11.285 4.619l13.76 3.371v11.819l-13.76-3.371v-11.819zM10.405 3.605v13.408l15.52 3.808v-13.408l-15.525-3.803z"></path>
<path  d="M18.72 27.040l-15.52-3.819v-13.392l15.52 3.808v13.397z"></path>
<path  d="M10.661 4.464l13.579 3.333-5.776 4.981-13.579-3.328 5.776-4.987zM10.405 3.611l-7.205 6.219 15.52 3.808 7.2-6.224-15.52-3.803zM19.595 26.283l6.331-5.467-6.331-1.552v7.019z"></path>
</symbol>
<symbol id="icon-Logo" viewBox="0 0 57 32">
<path  d="M20.267 3.733l3.733 3.536h-6.933v17.157h18.133v-6.56l3.733 3.531v-17.664h-18.667zM35.040 17.456l-10.608-10.032h10.608v10.027zM31.744 21.925h-11.808v-11.547h0.837v10.763h10.971v0.784zM22.725 26.72l-0.437 0.896-0.437-0.896h-0.363l0.64 1.2v0.693h0.325v-0.693l0.64-1.2h-0.373zM23.275 28.613l0.149-0.437h0.736l0.16 0.437h0.341l-0.72-1.893h-0.293l-0.72 1.893h0.347zM23.792 27.12l0.277 0.789h-0.549l0.272-0.789zM25.531 27.867c-0.043 0.066-0.069 0.146-0.069 0.233 0 0.001 0 0.001 0 0.002v-0c0 0.16 0.053 0.293 0.165 0.389 0.112 0.101 0.267 0.149 0.453 0.149s0.347-0.053 0.48-0.149l0.107 0.123h0.373l-0.283-0.325c0.107-0.149 0.16-0.341 0.16-0.576h-0.267c0 0.128-0.032 0.245-0.085 0.347l-0.363-0.427 0.128-0.101c0.091-0.064 0.16-0.128 0.197-0.197 0.037-0.061 0.058-0.134 0.058-0.212 0-0.12-0.051-0.229-0.133-0.305l-0-0c-0.085-0.076-0.197-0.123-0.321-0.123-0.005 0-0.011 0-0.016 0l0.001-0c-0.009-0.001-0.020-0.001-0.030-0.001-0.13 0-0.248 0.049-0.338 0.129l0-0c-0.083 0.084-0.134 0.199-0.134 0.326 0 0.009 0 0.018 0.001 0.027l-0-0.001c0 0.064 0.016 0.128 0.043 0.192s0.080 0.144 0.155 0.235c-0.11 0.073-0.204 0.162-0.281 0.264l-0.002 0.003zM26.384 28.283c-0.081 0.066-0.185 0.106-0.299 0.107h-0c-0.005 0-0.010 0-0.016 0-0.080 0-0.153-0.031-0.208-0.081l0 0c-0.053-0.051-0.086-0.123-0.086-0.203 0-0.004 0-0.008 0-0.011l-0 0.001c0-0.107 0.053-0.192 0.16-0.272l0.037-0.032 0.411 0.491zM26.048 27.44c-0.091-0.107-0.133-0.197-0.133-0.272 0-0.064 0.016-0.117 0.053-0.16 0.034-0.036 0.082-0.059 0.136-0.059 0.003 0 0.006 0 0.008 0h-0c0.059 0 0.107 0.016 0.144 0.053 0.037 0.032 0.053 0.075 0.053 0.123 0 0.075-0.027 0.139-0.080 0.187l-0.037 0.032-0.144 0.096zM29.131 28.475c0.133-0.117 0.208-0.272 0.224-0.48h-0.325c-0.016 0.139-0.059 0.235-0.123 0.293-0.069 0.059-0.16 0.085-0.293 0.085-0.005 0-0.011 0-0.016 0-0.126 0-0.237-0.063-0.303-0.159l-0.001-0.001c-0.075-0.107-0.112-0.267-0.112-0.469v-0.165c0-0.203 0.037-0.357 0.117-0.459 0.075-0.107 0.187-0.16 0.331-0.16 0.123 0 0.213 0.032 0.277 0.091s0.107 0.16 0.123 0.293h0.325c-0.010-0.189-0.092-0.358-0.218-0.48l-0-0c-0.126-0.107-0.291-0.172-0.47-0.172-0.013 0-0.025 0-0.038 0.001l0.002-0c-0.16 0-0.293 0.037-0.411 0.107-0.117 0.080-0.213 0.181-0.272 0.32-0.064 0.133-0.096 0.293-0.096 0.469v0.181c0 0.171 0.032 0.325 0.096 0.459s0.149 0.235 0.267 0.304c0.117 0.075 0.251 0.107 0.4 0.107 0.213 0 0.389-0.053 0.517-0.165zM31.067 28.208c0.064-0.144 0.096-0.304 0.096-0.491v-0.107c0-0.187-0.032-0.347-0.096-0.48-0.114-0.26-0.369-0.438-0.666-0.438-0.010 0-0.019 0-0.029 0.001l0.001-0c-0.149 0-0.288 0.037-0.405 0.112s-0.213 0.187-0.277 0.325c-0.064 0.144-0.101 0.304-0.101 0.491v0.107c0 0.181 0.037 0.341 0.101 0.48s0.16 0.245 0.277 0.32c0.123 0.075 0.261 0.112 0.411 0.112 0.16 0 0.293-0.037 0.416-0.107 0.117-0.080 0.213-0.187 0.272-0.325zM30.715 27.136c0.080 0.107 0.123 0.272 0.123 0.48v0.101c0 0.213-0.043 0.373-0.123 0.485-0.070 0.101-0.186 0.166-0.316 0.166-0.007 0-0.014-0-0.021-0.001l0.001 0c-0.004 0-0.009 0-0.015 0-0.132 0-0.249-0.065-0.321-0.164l-0.001-0.001c-0.078-0.124-0.124-0.274-0.124-0.436 0-0.017 0.001-0.035 0.002-0.052l-0 0.002v-0.107c0-0.208 0.043-0.363 0.123-0.48 0.072-0.098 0.186-0.161 0.315-0.161 0.007 0 0.015 0 0.022 0.001l-0.001-0c0.144 0 0.256 0.053 0.336 0.16z"></path>
</symbol>
<symbol id="icon-envelope" viewBox="0 0 32 32">
<path d="M29 4h-26c-1.66 0-3 1.34-3 3v18c0 1.66 1.34 3 3 3h26c1.66 0 3-1.34 3-3v-18c0-1.66-1.34-3-3-3zM29 6c0.002-0 0.005-0 0.008-0 0.142 0 0.276 0.029 0.398 0.083l-0.006-0.003-13.4 11.6-13.4-11.6c0.116-0.051 0.25-0.080 0.392-0.080 0.003 0 0.006 0 0.008 0h26zM29 26h-26c-0.552 0-1-0.448-1-1v0-16.8l13.34 11.56c0.175 0.154 0.407 0.249 0.66 0.249s0.485-0.094 0.661-0.25l-0.001 0.001 13.34-11.56v16.8c0 0.552-0.448 1-1 1v0z"></path>
</symbol>
<symbol id="icon-facebook" viewBox="0 0 32 32">
<path  d="M21.328 5.312h2.923v-5.088c-1.232-0.143-2.66-0.224-4.108-0.224-0.052 0-0.104 0-0.156 0l0.008-0c-4.213 0-7.099 2.65-7.099 7.52v4.48h-4.646v5.688h4.646v14.312h5.699v-14.31h4.459l0.707-5.688h-5.168v-3.922c0-1.643 0.443-2.768 2.734-2.768z"></path>
</symbol>
<symbol id="icon-instagram" viewBox="0 0 32 32">
<path  d="M31.968 9.408c-0.024-1.403-0.292-2.735-0.763-3.968l0.027 0.080c-0.427-1.109-1.058-2.054-1.854-2.83l-0.002-0.002c-0.8-0.8-1.76-1.44-2.832-1.84-1.151-0.448-2.483-0.721-3.875-0.752l-0.013-0c-1.458-0.070-3.167-0.109-4.885-0.109-0.6 0-1.199 0.005-1.797 0.014l0.090-0.001c-4.352 0-4.896 0.016-6.592 0.096-1.712 0.064-2.88 0.352-3.888 0.736-1.072 0.416-2.032 1.040-2.832 1.856-0.816 0.8-1.44 1.76-1.856 2.832-0.443 1.152-0.711 2.485-0.736 3.877l-0 0.011c-0.070 1.458-0.109 3.167-0.109 4.885 0 0.6 0.005 1.199 0.014 1.797l-0.001-0.090c0 4.352 0 4.896 0.080 6.592 0.030 1.405 0.303 2.737 0.779 3.968l-0.027-0.080c0.4 1.072 1.040 2.032 1.856 2.832 0.8 0.816 1.76 1.44 2.832 1.856 1.008 0.384 2.176 0.656 3.872 0.736 1.712 0.080 2.24 0.096 6.592 0.096s4.896-0.016 6.608-0.096c1.397-0.026 2.724-0.294 3.952-0.763l-0.080 0.027c2.16-0.851 3.837-2.528 4.669-4.633l0.019-0.055c0.384-1.024 0.672-2.176 0.736-3.888 0.080-1.696 0.096-2.24 0.096-6.592 0-4.336 0-4.88-0.080-6.592zM29.088 22.48c-0.064 1.552-0.32 2.4-0.544 2.96-0.552 1.401-1.639 2.488-3.004 3.027l-0.036 0.013c-0.56 0.224-1.424 0.48-2.976 0.544-1.68 0.080-2.192 0.096-6.464 0.096-0.465 0.007-1.013 0.011-1.562 0.011-1.724 0-3.439-0.039-5.144-0.116l0.242 0.009c-1.568-0.064-2.4-0.32-2.96-0.544-0.722-0.271-1.337-0.68-1.839-1.199l-0.001-0.001c-0.518-0.5-0.926-1.108-1.189-1.79l-0.011-0.034c-0.336-0.884-0.535-1.905-0.544-2.972l-0-0.004c-0.068-1.463-0.107-3.179-0.107-4.903 0-0.549 0.004-1.097 0.012-1.643l-0.001 0.083c0-4.272 0.016-4.784 0.096-6.464 0.064-1.568 0.32-2.4 0.544-2.976 0.256-0.688 0.656-1.312 1.2-1.824 0.504-0.519 1.118-0.928 1.806-1.189l0.034-0.011c0.56-0.224 1.408-0.48 2.976-0.544 1.68-0.080 2.192-0.096 6.448-0.096 4.288 0 4.8 0 6.464 0.096 1.568 0.064 2.4 0.32 2.976 0.544 0.688 0.256 1.328 0.656 1.84 1.2 0.528 0.512 0.944 1.136 1.2 1.824 0.208 0.576 0.48 1.424 0.544 2.976 0.080 1.68 0.096 2.192 0.096 6.464s-0.016 4.768-0.096 6.464z"></path>
<path  d="M16.064 7.776c-4.542 0-8.224 3.682-8.224 8.224s3.682 8.224 8.224 8.224v0c4.542 0 8.224-3.682 8.224-8.224s-3.682-8.224-8.224-8.224v0zM16.064 21.328c-2.943 0-5.328-2.385-5.328-5.328s2.385-5.328 5.328-5.328v0c2.943 0 5.328 2.385 5.328 5.328s-2.385 5.328-5.328 5.328v0zM26.528 7.456c0 1.060-0.86 1.92-1.92 1.92s-1.92-0.86-1.92-1.92v0c0-1.060 0.86-1.92 1.92-1.92s1.92 0.86 1.92 1.92v0z"></path>
</symbol>
<symbol id="icon-linkedin" viewBox="0 0 32 32">
<path  d="M32 32v-11.744c0-5.728-1.232-10.16-7.952-10.16-0.076-0.003-0.166-0.005-0.256-0.005-2.555 0-4.788 1.376-5.999 3.428l-0.018 0.032h-0.096v-2.912h-6.368v21.36h6.64v-10.576c0-2.784 0.528-5.488 3.968-5.488 3.408 0 3.456 3.184 3.456 5.664v10.4h6.624zM0.528 10.64h6.64v21.36h-6.64v-21.36zM3.84 0c-2.121 0-3.84 1.719-3.84 3.84v0c-0 0.005-0 0.010-0 0.016 0 2.127 1.715 3.854 3.838 3.872h0.002c2.128 0 3.84-1.76 3.84-3.888 0-2.121-1.719-3.84-3.84-3.84v0z"></path>
</symbol>
<symbol id="icon-smartphone" viewBox="0 0 32 32">
<path  d="M23 0h-14c-1.66 0-3 1.34-3 3v26c0 1.66 1.34 3 3 3h14c1.66 0 3-1.34 3-3v-26c0-1.66-1.34-3-3-3zM9 2h14c0.56 0 1 0.44 1 1v21h-16v-21c0-0.56 0.44-1 1-1zM23 30h-14c-0.552 0-1-0.448-1-1v0-3h16v3c0 0.552-0.448 1-1 1v0z"></path>
<path  d="M10.7 27.48c0.4 0.36 0.4 0.96 0 1.32-0.186 0.164-0.431 0.264-0.7 0.264s-0.514-0.1-0.701-0.265l0.001 0.001c-0.177-0.165-0.288-0.399-0.288-0.66s0.111-0.495 0.288-0.659l0.001-0.001c0.4-0.36 1-0.36 1.4 0z"></path>
</symbol>
<symbol id="icon-twitter" viewBox="0 0 32 32">
<path  d="M32 6.080c-1.184 0.528-2.464 0.864-3.776 1.040 1.36-0.816 2.4-2.080 2.88-3.632-1.28 0.752-2.672 1.28-4.16 1.6-1.202-1.298-2.915-2.107-4.817-2.107-3.623 0-6.56 2.937-6.56 6.56 0 0.538 0.065 1.060 0.187 1.56l-0.009-0.045c-5.462-0.281-10.265-2.883-13.477-6.83l-0.027-0.034c-0.558 0.949-0.887 2.089-0.887 3.307 0 2.26 1.134 4.255 2.865 5.446l0.022 0.014c-1.040 0-2.080-0.32-2.96-0.8v0.064c0 3.2 2.272 5.84 5.264 6.448-0.518 0.147-1.113 0.232-1.728 0.232-0.442 0-0.873-0.044-1.29-0.127l0.042 0.007c0.878 2.623 3.284 4.493 6.136 4.56l0.008 0c-2.221 1.763-5.066 2.828-8.159 2.828-0.547 0-1.087-0.033-1.617-0.098l0.064 0.006c2.826 1.846 6.286 2.944 10.003 2.944 0.022 0 0.043-0 0.065-0h-0.003c12.080 0 18.672-10 18.672-18.672 0-0.288 0-0.576-0.032-0.848 1.312-0.928 2.4-2.080 3.296-3.408z"></path>
</symbol>
</defs>
</svg>
